<svg width="60" height="60" viewBox="0 0 60 60" fill="none" xmlns="http://www.w3.org/2000/svg">
  <!-- Outer Glow -->
  <circle cx="30" cy="30" r="28" fill="url(#starGlow)" opacity="0.3">
    <animate attributeName="opacity" values="0.2;0.4;0.2" dur="3s" repeatCount="indefinite"/>
  </circle>
  
  <!-- Main Star -->
  <g transform="translate(30, 30)">
    <polygon points="0,-20 6,-6 20,-6 10,2 16,16 0,8 -16,16 -10,2 -20,-6 -6,-6" 
             fill="url(#starGradient)" 
             stroke="#f39c12" 
             stroke-width="1">
      <animateTransform attributeName="transform" type="rotate" values="0;360" dur="20s" repeatCount="indefinite"/>
    </polygon>
  </g>
  
  <!-- Inner Star -->
  <g transform="translate(30, 30)">
    <polygon points="0,-12 4,-4 12,-4 6,1 9,9 0,5 -9,9 -6,1 -12,-4 -4,-4" 
             fill="rgba(255,255,255,0.8)" 
             opacity="0.9">
      <animateTransform attributeName="transform" type="rotate" values="0;-360" dur="15s" repeatCount="indefinite"/>
    </polygon>
  </g>
  
  <!-- Center Sparkle -->
  <circle cx="30" cy="30" r="3" fill="#fff">
    <animate attributeName="r" values="2;4;2" dur="2s" repeatCount="indefinite"/>
    <animate attributeName="opacity" values="0.8;1;0.8" dur="2s" repeatCount="indefinite"/>
  </circle>
  
  <!-- Floating Sparkles -->
  <g opacity="0.8">
    <circle cx="15" cy="15" r="1.5" fill="#fff">
      <animate attributeName="opacity" values="0.3;1;0.3" dur="1.5s" repeatCount="indefinite"/>
    </circle>
    <circle cx="45" cy="20" r="1" fill="#fff">
      <animate attributeName="opacity" values="1;0.3;1" dur="2s" repeatCount="indefinite"/>
    </circle>
    <circle cx="20" cy="45" r="1.5" fill="#fff">
      <animate attributeName="opacity" values="0.5;1;0.5" dur="2.5s" repeatCount="indefinite"/>
    </circle>
    <circle cx="45" cy="45" r="1" fill="#fff">
      <animate attributeName="opacity" values="1;0.2;1" dur="1.8s" repeatCount="indefinite"/>
    </circle>
  </g>
  
  <!-- Definitions -->
  <defs>
    <radialGradient id="starGlow" cx="50%" cy="50%" r="50%">
      <stop offset="0%" style="stop-color:#f39c12;stop-opacity:0.6" />
      <stop offset="100%" style="stop-color:#f39c12;stop-opacity:0" />
    </radialGradient>
    <linearGradient id="starGradient" x1="0%" y1="0%" x2="100%" y2="100%">
      <stop offset="0%" style="stop-color:#f1c40f;stop-opacity:1" />
      <stop offset="50%" style="stop-color:#f39c12;stop-opacity:1" />
      <stop offset="100%" style="stop-color:#e67e22;stop-opacity:1" />
    </linearGradient>
  </defs>
</svg>