<svg width="600" height="400" viewBox="0 0 600 400" fill="none" xmlns="http://www.w3.org/2000/svg">
  <!-- Background -->
  <rect width="600" height="400" fill="url(#heroGradient)"/>
  
  <!-- Floating Elements -->
  <circle cx="100" cy="80" r="30" fill="rgba(255,255,255,0.1)" opacity="0.8">
    <animate attributeName="cy" values="80;60;80" dur="3s" repeatCount="indefinite"/>
  </circle>
  
  <circle cx="520" cy="120" r="20" fill="rgba(255,255,255,0.15)" opacity="0.6">
    <animate attributeName="cy" values="120;100;120" dur="4s" repeatCount="indefinite"/>
  </circle>
  
  <!-- Main Character -->
  <g transform="translate(200, 100)">
    <!-- Body -->
    <ellipse cx="100" cy="180" rx="40" ry="60" fill="#667eea"/>
    
    <!-- Head -->
    <circle cx="100" cy="80" r="35" fill="#ffeaa7"/>
    
    <!-- Eyes -->
    <circle cx="90" cy="75" r="3" fill="#2d3436"/>
    <circle cx="110" cy="75" r="3" fill="#2d3436"/>
    
    <!-- Smile -->
    <path d="M 85 85 Q 100 95 115 85" stroke="#2d3436" stroke-width="2" fill="none"/>
    
    <!-- Arms -->
    <ellipse cx="65" cy="140" rx="15" ry="30" fill="#ffeaa7" transform="rotate(-20 65 140)"/>
    <ellipse cx="135" cy="140" rx="15" ry="30" fill="#ffeaa7" transform="rotate(20 135 140)"/>
    
    <!-- Book in hand -->
    <rect x="125" y="125" width="20" height="15" fill="#fd79a8" rx="2"/>
    <line x1="130" y1="125" x2="130" y2="140" stroke="#e84393" stroke-width="1"/>
  </g>
  
  <!-- Learning Elements -->
  <g transform="translate(350, 150)">
    <!-- Lightbulb -->
    <circle cx="50" cy="50" r="20" fill="#fdcb6e" opacity="0.9"/>
    <rect x="45" y="65" width="10" height="8" fill="#636e72" rx="2"/>
    <path d="M 40 45 Q 50 35 60 45" stroke="#f39c12" stroke-width="2" fill="none"/>
    
    <animateTransform attributeName="transform" type="rotate" values="0 50 50;5 50 50;0 50 50;-5 50 50;0 50 50" dur="2s" repeatCount="indefinite"/>
  </g>
  
  <!-- Trophy -->
  <g transform="translate(80, 250)">
    <ellipse cx="30" cy="40" rx="15" ry="20" fill="#f39c12"/>
    <rect x="25" y="55" width="10" height="15" fill="#636e72"/>
    <ellipse cx="30" cy="70" rx="20" ry="5" fill="#636e72"/>
    <circle cx="30" cy="30" r="8" fill="#e67e22"/>
    
    <animateTransform attributeName="transform" type="scale" values="1;1.1;1" dur="2s" repeatCount="indefinite"/>
  </g>
  
  <!-- Floating Books -->
  <g transform="translate(450, 80)">
    <rect x="0" y="0" width="25" height="18" fill="#74b9ff" rx="2">
      <animate attributeName="y" values="0;-10;0" dur="3s" repeatCount="indefinite"/>
    </rect>
    <rect x="5" y="20" width="25" height="18" fill="#fd79a8" rx="2">
      <animate attributeName="y" values="20;10;20" dur="3.5s" repeatCount="indefinite"/>
    </rect>
    <rect x="10" y="40" width="25" height="18" fill="#55a3ff" rx="2">
      <animate attributeName="y" values="40;30;40" dur="4s" repeatCount="indefinite"/>
    </rect>
  </g>
  
  <!-- Graduation Cap -->
  <g transform="translate(120, 180)">
    <ellipse cx="25" cy="25" rx="30" ry="8" fill="#2d3436"/>
    <rect x="10" y="15" width="30" height="10" fill="#2d3436"/>
    <circle cx="45" cy="20" r="2" fill="#fdcb6e"/>
    <line x1="45" y1="22" x2="45" y2="35" stroke="#fdcb6e" stroke-width="1"/>
    
    <animateTransform attributeName="transform" type="rotate" values="0 25 25;3 25 25;0 25 25;-3 25 25;0 25 25" dur="4s" repeatCount="indefinite"/>
  </g>
  
  <!-- Definitions -->
  <defs>
    <linearGradient id="heroGradient" x1="0%" y1="0%" x2="100%" y2="100%">
      <stop offset="0%" style="stop-color:#667eea;stop-opacity:0.1" />
      <stop offset="50%" style="stop-color:#764ba2;stop-opacity:0.05" />
      <stop offset="100%" style="stop-color:#f093fb;stop-opacity:0.1" />
    </linearGradient>
  </defs>
</svg>